<svg version="1" xmlns="http://www.w3.org/2000/svg" width="922.667" height="922.667" viewBox="0 0 692.000000 692.000000"><path d="M189.7 86.2L35 172.4v358.2l156 80.7 156.1 80.8 155.1-80.8 155.1-80.8-.7-94.5c-.3-52-.9-132.6-1.2-179.1l-.7-84.6-154.8-86.2C414.8 38.8 345 0 344.8 0c-.2 0-69.9 38.8-155.1 86.2zm151.5 269C340.4 356 62 511 61.4 511c-.2 0-.4-72.8-.4-161.8V187.4l140.3-77.7L341.5 32l.3 161.2c.1 88.7-.1 161.5-.6 162zm150.5-243.7l137.3 76v309.6l-62.2-31.5c-34.3-17.3-97.4-49.3-140.3-71l-78-39.5-.3-161.7-.2-161.6 3.2 1.9c1.8 1 65.1 36.1 140.5 77.8zm-94.9 275.3c27.9 14.2 91.5 46.5 141.4 71.8l90.8 45.9v12l-141.5 73.7L346 663.9l-140.5-73.2C128.2 550.4 65 517.3 65 517c0-.8 278.2-155.8 279.8-155.9.7-.1 24.1 11.5 52 25.7z"/></svg>