{
    "asset" : {
        "generator" : "Khronos Blender glTF 2.0 I/O",
        "version" : "2.0"
    },
    "scene" : 0,
    "scenes" : [
        {
            "name" : "Scene",
            "nodes" : [
                0,
                1,
                2,
                3,
                4,
                5,
                6,
                7,
                8,
                9
            ]
        }
    ],
    "nodes" : [
        {
            "name" : "Point",
            "translation" : [
                -2.0941994190216064,
                8.234573364257812,
                2.637110710144043
            ]
        },
        {
            "name" : "Point.001",
            "translation" : [
                4.11336088180542,
                6.207866668701172,
                -3.7855515480041504
            ]
        },
        {
            "name" : "Camera",
            "rotation" : [
                0.483536034822464,
                0.33687159419059753,
                -0.20870360732078552,
                0.7804827094078064
            ],
            "translation" : [
                16.054397583007812,
                12.415853500366211,
                15.206777572631836
            ]
        },
        {
            "mesh" : 0,
            "name" : "Cube",
            "scale" : [
                5.70827579498291,
                -0.7247474193572998,
                5.70827579498291
            ],
            "translation" : [
                0,
                0.7495240569114685,
                0
            ]
        },
        {
            "mesh" : 1,
            "name" : "Cylinder",
            "rotation" : [
                -0.10460270941257477,
                0.16699303686618805,
                0.6558104753494263,
                0.7287552356719971
            ],
            "scale" : [
                1,
                2.9263532161712646,
                1
            ],
            "translation" : [
                0.09093758463859558,
                1.5224088430404663,
                -0.07736128568649292
            ]
        },
        {
            "mesh" : 2,
            "name" : "Cylinder.001",
            "rotation" : [
                0.0024874540977180004,
                0.03321544826030731,
                -0.05919019877910614,
                0.9976908564567566
            ],
            "scale" : [
                0.18833523988723755,
                0.318520724773407,
                0.18833523988723755
            ],
            "translation" : [
                0.17372819781303406,
                2.2174954414367676,
                -0.0766393169760704
            ]
        },
        {
            "mesh" : 3,
            "name" : "Cylinder.002",
            "rotation" : [
                0.0024874540977180004,
                0.03321544826030731,
                -0.05919019877910614,
                0.9976908564567566
            ],
            "translation" : [
                -0.021517563611268997,
                0.5782672166824341,
                -0.07834193855524063
            ]
        },
        {
            "mesh" : 4,
            "name" : "Cylinder.003",
            "rotation" : [
                0.006110726855695248,
                0.035710956901311874,
                -0.06899885833263397,
                0.9969586730003357
            ],
            "scale" : [
                -0.1866476833820343,
                -0.04174002259969711,
                -0.17295880615711212
            ],
            "translation" : [
                0.6481526494026184,
                6.0653276443481445,
                -0.06956582516431808
            ]
        },
        {
            "mesh" : 5,
            "name" : "Icosphere",
            "rotation" : [
                -0.020320072770118713,
                0.02501140534877777,
                -0.0869874507188797,
                0.9956880807876587
            ],
            "scale" : [
                -0.26078709959983826,
                -0.26078706979751587,
                -0.26078706979751587
            ],
            "translation" : [
                0.6134507656097412,
                5.841070652008057,
                -0.06992141157388687
            ]
        },
        {
            "mesh" : 6,
            "name" : "Plane",
            "rotation" : [
                -0.056864432990550995,
                -0.7048165798187256,
                -0.05686443671584129,
                0.7048166394233704
            ],
            "scale" : [
                0.15229301154613495,
                0.25495392084121704,
                0.22742053866386414
            ],
            "translation" : [
                0.6536787152290344,
                5.810220718383789,
                -0.07604371756315231
            ]
        }
    ],
    "materials" : [
        {
            "name" : "Material.003",
            "pbrMetallicRoughness" : {}
        },
        {
            "name" : "Material.001",
            "pbrMetallicRoughness" : {
                "baseColorFactor" : [
                    0.28822827339172363,
                    0.28822827339172363,
                    0.28822827339172363,
                    1
                ],
                "metallicFactor" : 0.7848101258277893,
                "roughnessFactor" : 0.6898733973503113
            }
        },
        {
            "name" : "Material.002",
            "pbrMetallicRoughness" : {
                "metallicFactor" : 0,
                "roughnessFactor" : 0.9367088675498962
            }
        },
        {
            "name" : "Material.005",
            "pbrMetallicRoughness" : {
                "baseColorFactor" : [
                    0.03003515861928463,
                    0.01340761873871088,
                    0.005212942138314247,
                    1
                ],
                "metallicFactor" : 0,
                "roughnessFactor" : 0.8333333730697632
            }
        }
    ],
    "meshes" : [
        {
            "name" : "Cube.000",
            "primitives" : [
                {
                    "attributes" : {
                        "POSITION" : 0,
                        "NORMAL" : 1,
                        "TANGENT" : 2,
                        "TEXCOORD_0" : 3
                    },
                    "indices" : 4,
                    "material" : 0
                }
            ]
        },
        {
            "name" : "Cylinder.003",
            "primitives" : [
                {
                    "attributes" : {
                        "POSITION" : 5,
                        "NORMAL" : 6,
                        "TEXCOORD_0" : 7
                    },
                    "indices" : 8,
                    "material" : 1
                }
            ]
        },
        {
            "name" : "Cylinder.003",
            "primitives" : [
                {
                    "attributes" : {
                        "POSITION" : 9,
                        "NORMAL" : 10,
                        "TANGENT" : 11,
                        "TEXCOORD_0" : 12,
                        "COLOR_0" : 13
                    },
                    "indices" : 14,
                    "material" : 2
                }
            ]
        },
        {
            "name" : "Cylinder.003",
            "primitives" : [
                {
                    "attributes" : {
                        "POSITION" : 15,
                        "NORMAL" : 16,
                        "TEXCOORD_0" : 17
                    },
                    "indices" : 18,
                    "material" : 1
                }
            ]
        },
        {
            "name" : "Cylinder.003",
            "primitives" : [
                {
                    "attributes" : {
                        "POSITION" : 19,
                        "NORMAL" : 20,
                        "TEXCOORD_0" : 21
                    },
                    "indices" : 18,
                    "material" : 1
                }
            ]
        },
        {
            "name" : "Icosphere.000",
            "primitives" : [
                {
                    "attributes" : {
                        "POSITION" : 22,
                        "NORMAL" : 23,
                        "TANGENT" : 24,
                        "TEXCOORD_0" : 25
                    },
                    "indices" : 26,
                    "material" : 1
                }
            ]
        },
        {
            "name" : "Plane.001",
            "primitives" : [
                {
                    "attributes" : {
                        "POSITION" : 27,
                        "NORMAL" : 28,
                        "TANGENT" : 29,
                        "TEXCOORD_0" : 30
                    },
                    "indices" : 31,
                    "material" : 3
                }
            ]
        }
    ],
    "accessors" : [
        {
            "bufferView" : 0,
            "componentType" : 5126,
            "count" : 4572,
            "max" : [
                1,
                1,
                1.0137401819229126
            ],
            "min" : [
                -1.0000536441802979,
                -1,
                -1.0043237209320068
            ],
            "type" : "VEC3"
        },
        {
            "bufferView" : 1,
            "componentType" : 5126,
            "count" : 4572,
            "type" : "VEC3"
        },
        {
            "bufferView" : 2,
            "componentType" : 5126,
            "count" : 4572,
            "type" : "VEC4"
        },
        {
            "bufferView" : 3,
            "componentType" : 5126,
            "count" : 4572,
            "type" : "VEC2"
        },
        {
            "bufferView" : 4,
            "componentType" : 5123,
            "count" : 5826,
            "type" : "SCALAR"
        },
        {
            "bufferView" : 5,
            "componentType" : 5126,
            "count" : 112,
            "max" : [
                1.1147184371948242,
                0.5,
                1.1147184371948242
            ],
            "min" : [
                -1.1147184371948242,
                -0.5,
                -1.1147184371948242
            ],
            "type" : "VEC3"
        },
        {
            "bufferView" : 6,
            "componentType" : 5126,
            "count" : 112,
            "type" : "VEC3"
        },
        {
            "bufferView" : 7,
            "componentType" : 5126,
            "count" : 112,
            "type" : "VEC2"
        },
        {
            "bufferView" : 8,
            "componentType" : 5123,
            "count" : 180,
            "type" : "SCALAR"
        },
        {
            "bufferView" : 9,
            "componentType" : 5126,
            "count" : 38880,
            "max" : [
                1.1792017221450806,
                11.380960464477539,
                1.179248571395874
            ],
            "min" : [
                -1.1792017221450806,
                -0.40581461787223816,
                -1.1792486906051636
            ],
            "type" : "VEC3"
        },
        {
            "bufferView" : 10,
            "componentType" : 5126,
            "count" : 38880,
            "type" : "VEC3"
        },
        {
            "bufferView" : 11,
            "componentType" : 5126,
            "count" : 38880,
            "type" : "VEC4"
        },
        {
            "bufferView" : 12,
            "componentType" : 5126,
            "count" : 38880,
            "type" : "VEC2"
        },
        {
            "bufferView" : 13,
            "componentType" : 5126,
            "count" : 38880,
            "type" : "VEC4"
        },
        {
            "bufferView" : 14,
            "componentType" : 5123,
            "count" : 38880,
            "type" : "SCALAR"
        },
        {
            "bufferView" : 15,
            "componentType" : 5126,
            "count" : 192,
            "max" : [
                0.3400000333786011,
                0.050000011920928955,
                0.3400000333786011
            ],
            "min" : [
                -0.3400000333786011,
                -0.050000011920928955,
                -0.3400000333786011
            ],
            "type" : "VEC3"
        },
        {
            "bufferView" : 16,
            "componentType" : 5126,
            "count" : 192,
            "type" : "VEC3"
        },
        {
            "bufferView" : 17,
            "componentType" : 5126,
            "count" : 192,
            "type" : "VEC2"
        },
        {
            "bufferView" : 18,
            "componentType" : 5123,
            "count" : 372,
            "type" : "SCALAR"
        },
        {
            "bufferView" : 19,
            "componentType" : 5126,
            "count" : 192,
            "max" : [
                1,
                1,
                1
            ],
            "min" : [
                -1,
                -1.0000046491622925,
                -1
            ],
            "type" : "VEC3"
        },
        {
            "bufferView" : 20,
            "componentType" : 5126,
            "count" : 192,
            "type" : "VEC3"
        },
        {
            "bufferView" : 21,
            "componentType" : 5126,
            "count" : 192,
            "type" : "VEC2"
        },
        {
            "bufferView" : 22,
            "componentType" : 5126,
            "count" : 240,
            "max" : [
                0.9510578513145447,
                1,
                0.9999999403953552
            ],
            "min" : [
                -0.9510578513145447,
                -1,
                -0.9999999403953552
            ],
            "type" : "VEC3"
        },
        {
            "bufferView" : 23,
            "componentType" : 5126,
            "count" : 240,
            "type" : "VEC3"
        },
        {
            "bufferView" : 24,
            "componentType" : 5126,
            "count" : 240,
            "type" : "VEC4"
        },
        {
            "bufferView" : 25,
            "componentType" : 5126,
            "count" : 240,
            "type" : "VEC2"
        },
        {
            "bufferView" : 26,
            "componentType" : 5123,
            "count" : 240,
            "type" : "SCALAR"
        },
        {
            "bufferView" : 27,
            "componentType" : 5126,
            "count" : 280,
            "max" : [
                1.2972115278244019,
                1.3928855657577515,
                1.5311253070831299
            ],
            "min" : [
                -1.2428251504898071,
                -4.489194393157959,
                -2.6819136142730713
            ],
            "type" : "VEC3"
        },
        {
            "bufferView" : 28,
            "componentType" : 5126,
            "count" : 280,
            "type" : "VEC3"
        },
        {
            "bufferView" : 29,
            "componentType" : 5126,
            "count" : 280,
            "type" : "VEC4"
        },
        {
            "bufferView" : 30,
            "componentType" : 5126,
            "count" : 280,
            "type" : "VEC2"
        },
        {
            "bufferView" : 31,
            "componentType" : 5123,
            "count" : 420,
            "type" : "SCALAR"
        }
    ],
    "bufferViews" : [
        {
            "buffer" : 0,
            "byteLength" : 54864,
            "byteOffset" : 0
        },
        {
            "buffer" : 0,
            "byteLength" : 54864,
            "byteOffset" : 54864
        },
        {
            "buffer" : 0,
            "byteLength" : 73152,
            "byteOffset" : 109728
        },
        {
            "buffer" : 0,
            "byteLength" : 36576,
            "byteOffset" : 182880
        },
        {
            "buffer" : 0,
            "byteLength" : 11652,
            "byteOffset" : 219456
        },
        {
            "buffer" : 0,
            "byteLength" : 1344,
            "byteOffset" : 231108
        },
        {
            "buffer" : 0,
            "byteLength" : 1344,
            "byteOffset" : 232452
        },
        {
            "buffer" : 0,
            "byteLength" : 896,
            "byteOffset" : 233796
        },
        {
            "buffer" : 0,
            "byteLength" : 360,
            "byteOffset" : 234692
        },
        {
            "buffer" : 0,
            "byteLength" : 466560,
            "byteOffset" : 235052
        },
        {
            "buffer" : 0,
            "byteLength" : 466560,
            "byteOffset" : 701612
        },
        {
            "buffer" : 0,
            "byteLength" : 622080,
            "byteOffset" : 1168172
        },
        {
            "buffer" : 0,
            "byteLength" : 311040,
            "byteOffset" : 1790252
        },
        {
            "buffer" : 0,
            "byteLength" : 622080,
            "byteOffset" : 2101292
        },
        {
            "buffer" : 0,
            "byteLength" : 77760,
            "byteOffset" : 2723372
        },
        {
            "buffer" : 0,
            "byteLength" : 2304,
            "byteOffset" : 2801132
        },
        {
            "buffer" : 0,
            "byteLength" : 2304,
            "byteOffset" : 2803436
        },
        {
            "buffer" : 0,
            "byteLength" : 1536,
            "byteOffset" : 2805740
        },
        {
            "buffer" : 0,
            "byteLength" : 744,
            "byteOffset" : 2807276
        },
        {
            "buffer" : 0,
            "byteLength" : 2304,
            "byteOffset" : 2808020
        },
        {
            "buffer" : 0,
            "byteLength" : 2304,
            "byteOffset" : 2810324
        },
        {
            "buffer" : 0,
            "byteLength" : 1536,
            "byteOffset" : 2812628
        },
        {
            "buffer" : 0,
            "byteLength" : 2880,
            "byteOffset" : 2814164
        },
        {
            "buffer" : 0,
            "byteLength" : 2880,
            "byteOffset" : 2817044
        },
        {
            "buffer" : 0,
            "byteLength" : 3840,
            "byteOffset" : 2819924
        },
        {
            "buffer" : 0,
            "byteLength" : 1920,
            "byteOffset" : 2823764
        },
        {
            "buffer" : 0,
            "byteLength" : 480,
            "byteOffset" : 2825684
        },
        {
            "buffer" : 0,
            "byteLength" : 3360,
            "byteOffset" : 2826164
        },
        {
            "buffer" : 0,
            "byteLength" : 3360,
            "byteOffset" : 2829524
        },
        {
            "buffer" : 0,
            "byteLength" : 4480,
            "byteOffset" : 2832884
        },
        {
            "buffer" : 0,
            "byteLength" : 2240,
            "byteOffset" : 2837364
        },
        {
            "buffer" : 0,
            "byteLength" : 840,
            "byteOffset" : 2839604
        }
    ],
    "buffers" : [
        {
            "byteLength" : 2840444,
            "uri" : "data:application/octet-stream;base64,"
        }
    ]
}
