{
    "asset" : {
        "generator" : "Khronos Blender glTF 2.0 I/O",
        "version" : "2.0"
    },
    "scene" : 0,
    "scenes" : [
        {
            "name" : "Scene",
            "nodes" : [
                0,
                1,
                2,
                3,
                4,
                5,
                6
            ]
        }
    ],
    "nodes" : [
        {
            "name" : "Light",
            "rotation" : [
                0.16907575726509094,
                0.7558803558349609,
                -0.27217137813568115,
                0.570947527885437
            ],
            "translation" : [
                4.076245307922363,
                5.903861999511719,
                -1.0054539442062378
            ]
        },
        {
            "name" : "Camera",
            "rotation" : [
                0.483536034822464,
                0.33687159419059753,
                -0.20870360732078552,
                0.7804827094078064
            ],
            "translation" : [
                7.017586708068848,
                6.079503059387207,
                6.475012302398682
            ]
        },
        {
            "mesh" : 0,
            "name" : "Icosphere.002",
            "scale" : [
                0.5781950950622559,
                0.5781950950622559,
                0.5781950950622559
            ],
            "translation" : [
                0.7940287590026855,
                2.279146671295166,
                -0.02972009964287281
            ]
        },
        {
            "mesh" : 1,
            "name" : "Cube"
        },
        {
            "mesh" : 2,
            "name" : "Icosphere.000",
            "scale" : [
                0.5781950950622559,
                0.5781950950622559,
                0.5781950950622559
            ],
            "translation" : [
                0.7940287590026855,
                2.279146671295166,
                -0.02972009964287281
            ]
        },
        {
            "mesh" : 3,
            "name" : "Icosphere.003",
            "rotation" : [
                -0.2319229543209076,
                0.29871493577957153,
                0.23548658192157745,
                0.8952805399894714
            ],
            "scale" : [
                0.5781950950622559,
                0.5781950950622559,
                0.5781950950622559
            ],
            "translation" : [
                0.7940287590026855,
                2.279146671295166,
                -0.02972009964287281
            ]
        },
        {
            "mesh" : 4,
            "name" : "Icosphere.001",
            "scale" : [
                0.3934214413166046,
                0.3934214413166046,
                0.3934214413166046
            ],
            "translation" : [
                0.6072535514831543,
                2.0964860916137695,
                -0.9959540963172913
            ]
        }
    ],
    "materials" : [
        {
            "name" : "Material.001",
            "pbrMetallicRoughness" : {
                "baseColorFactor" : [
                    0.1057453602552414,
                    0.3464599847793579,
                    0.08972702920436859,
                    1
                ],
                "metallicFactor" : 0,
                "roughnessFactor" : 0.5
            }
        },
        {
            "name" : "Material.005",
            "pbrMetallicRoughness" : {
                "metallicFactor" : 0,
                "roughnessFactor" : 0.5
            }
        },
        {
            "name" : "Material",
            "pbrMetallicRoughness" : {
                "baseColorFactor" : [
                    0.22340898215770721,
                    0.06878640502691269,
                    0.01974700763821602,
                    1
                ],
                "metallicFactor" : 0,
                "roughnessFactor" : 0.5
            }
        }
    ],
    "meshes" : [
        {
            "name" : "Icosphere.003",
            "primitives" : [
                {
                    "attributes" : {
                        "POSITION" : 0,
                        "NORMAL" : 1,
                        "TANGENT" : 2,
                        "TEXCOORD_0" : 3,
                        "COLOR_0" : 4
                    },
                    "indices" : 5,
                    "material" : 0
                }
            ]
        },
        {
            "name" : "Cube.003",
            "primitives" : [
                {
                    "attributes" : {
                        "POSITION" : 6,
                        "NORMAL" : 7,
                        "COLOR_0" : 8
                    },
                    "indices" : 9,
                    "material" : 1
                }
            ]
        },
        {
            "name" : "Icosphere.001",
            "primitives" : [
                {
                    "attributes" : {
                        "POSITION" : 10,
                        "NORMAL" : 11,
                        "TANGENT" : 12,
                        "TEXCOORD_0" : 13,
                        "COLOR_0" : 14
                    },
                    "indices" : 15,
                    "material" : 2
                }
            ]
        },
        {
            "name" : "Icosphere.004",
            "primitives" : [
                {
                    "attributes" : {
                        "POSITION" : 16,
                        "NORMAL" : 17,
                        "TANGENT" : 18,
                        "TEXCOORD_0" : 19,
                        "COLOR_0" : 20
                    },
                    "indices" : 21,
                    "material" : 0
                }
            ]
        },
        {
            "name" : "Icosphere.005",
            "primitives" : [
                {
                    "attributes" : {
                        "POSITION" : 22,
                        "NORMAL" : 23,
                        "TANGENT" : 24,
                        "TEXCOORD_0" : 25,
                        "COLOR_0" : 26
                    },
                    "indices" : 5,
                    "material" : 0
                }
            ]
        }
    ],
    "accessors" : [
        {
            "bufferView" : 0,
            "componentType" : 5126,
            "count" : 276,
            "max" : [
                -0.780637264251709,
                1.5640915632247925,
                2.331270933151245
            ],
            "min" : [
                -3.189033031463623,
                -0.8826580047607422,
                -0.25795066356658936
            ],
            "type" : "VEC3"
        },
        {
            "bufferView" : 1,
            "componentType" : 5126,
            "count" : 276,
            "type" : "VEC3"
        },
        {
            "bufferView" : 2,
            "componentType" : 5126,
            "count" : 276,
            "type" : "VEC4"
        },
        {
            "bufferView" : 3,
            "componentType" : 5126,
            "count" : 276,
            "type" : "VEC2"
        },
        {
            "bufferView" : 4,
            "componentType" : 5126,
            "count" : 276,
            "type" : "VEC4"
        },
        {
            "bufferView" : 5,
            "componentType" : 5123,
            "count" : 276,
            "type" : "SCALAR"
        },
        {
            "bufferView" : 6,
            "componentType" : 5126,
            "count" : 288,
            "max" : [
                1.0133641958236694,
                0.4286285936832428,
                1
            ],
            "min" : [
                -1,
                0,
                -1.0187480449676514
            ],
            "type" : "VEC3"
        },
        {
            "bufferView" : 7,
            "componentType" : 5126,
            "count" : 288,
            "type" : "VEC3"
        },
        {
            "bufferView" : 8,
            "componentType" : 5126,
            "count" : 288,
            "type" : "VEC4"
        },
        {
            "bufferView" : 9,
            "componentType" : 5123,
            "count" : 288,
            "type" : "SCALAR"
        },
        {
            "bufferView" : 10,
            "componentType" : 5126,
            "count" : 1474,
            "max" : [
                -0.3566652536392212,
                0.21156907081604004,
                0.94357830286026
            ],
            "min" : [
                -2.130436897277832,
                -3.321429967880249,
                -1.0220344066619873
            ],
            "type" : "VEC3"
        },
        {
            "bufferView" : 11,
            "componentType" : 5126,
            "count" : 1474,
            "type" : "VEC3"
        },
        {
            "bufferView" : 12,
            "componentType" : 5126,
            "count" : 1474,
            "type" : "VEC4"
        },
        {
            "bufferView" : 13,
            "componentType" : 5126,
            "count" : 1474,
            "type" : "VEC2"
        },
        {
            "bufferView" : 14,
            "componentType" : 5126,
            "count" : 1474,
            "type" : "VEC4"
        },
        {
            "bufferView" : 15,
            "componentType" : 5123,
            "count" : 1476,
            "type" : "SCALAR"
        },
        {
            "bufferView" : 16,
            "componentType" : 5126,
            "count" : 270,
            "max" : [
                0.9145145416259766,
                1.0036420822143555,
                0.9067550897598267
            ],
            "min" : [
                -0.967339038848877,
                -0.6733006238937378,
                -0.7652845978736877
            ],
            "type" : "VEC3"
        },
        {
            "bufferView" : 17,
            "componentType" : 5126,
            "count" : 270,
            "type" : "VEC3"
        },
        {
            "bufferView" : 18,
            "componentType" : 5126,
            "count" : 270,
            "type" : "VEC4"
        },
        {
            "bufferView" : 19,
            "componentType" : 5126,
            "count" : 270,
            "type" : "VEC2"
        },
        {
            "bufferView" : 20,
            "componentType" : 5126,
            "count" : 270,
            "type" : "VEC4"
        },
        {
            "bufferView" : 21,
            "componentType" : 5123,
            "count" : 270,
            "type" : "SCALAR"
        },
        {
            "bufferView" : 22,
            "componentType" : 5126,
            "count" : 276,
            "max" : [
                -0.780637264251709,
                1.5640915632247925,
                2.331270933151245
            ],
            "min" : [
                -3.189033031463623,
                -0.8826580047607422,
                -0.25795066356658936
            ],
            "type" : "VEC3"
        },
        {
            "bufferView" : 23,
            "componentType" : 5126,
            "count" : 276,
            "type" : "VEC3"
        },
        {
            "bufferView" : 24,
            "componentType" : 5126,
            "count" : 276,
            "type" : "VEC4"
        },
        {
            "bufferView" : 25,
            "componentType" : 5126,
            "count" : 276,
            "type" : "VEC2"
        },
        {
            "bufferView" : 26,
            "componentType" : 5126,
            "count" : 276,
            "type" : "VEC4"
        }
    ],
    "bufferViews" : [
        {
            "buffer" : 0,
            "byteLength" : 3312,
            "byteOffset" : 0
        },
        {
            "buffer" : 0,
            "byteLength" : 3312,
            "byteOffset" : 3312
        },
        {
            "buffer" : 0,
            "byteLength" : 4416,
            "byteOffset" : 6624
        },
        {
            "buffer" : 0,
            "byteLength" : 2208,
            "byteOffset" : 11040
        },
        {
            "buffer" : 0,
            "byteLength" : 4416,
            "byteOffset" : 13248
        },
        {
            "buffer" : 0,
            "byteLength" : 552,
            "byteOffset" : 17664
        },
        {
            "buffer" : 0,
            "byteLength" : 3456,
            "byteOffset" : 18216
        },
        {
            "buffer" : 0,
            "byteLength" : 3456,
            "byteOffset" : 21672
        },
        {
            "buffer" : 0,
            "byteLength" : 4608,
            "byteOffset" : 25128
        },
        {
            "buffer" : 0,
            "byteLength" : 576,
            "byteOffset" : 29736
        },
        {
            "buffer" : 0,
            "byteLength" : 17688,
            "byteOffset" : 30312
        },
        {
            "buffer" : 0,
            "byteLength" : 17688,
            "byteOffset" : 48000
        },
        {
            "buffer" : 0,
            "byteLength" : 23584,
            "byteOffset" : 65688
        },
        {
            "buffer" : 0,
            "byteLength" : 11792,
            "byteOffset" : 89272
        },
        {
            "buffer" : 0,
            "byteLength" : 23584,
            "byteOffset" : 101064
        },
        {
            "buffer" : 0,
            "byteLength" : 2952,
            "byteOffset" : 124648
        },
        {
            "buffer" : 0,
            "byteLength" : 3240,
            "byteOffset" : 127600
        },
        {
            "buffer" : 0,
            "byteLength" : 3240,
            "byteOffset" : 130840
        },
        {
            "buffer" : 0,
            "byteLength" : 4320,
            "byteOffset" : 134080
        },
        {
            "buffer" : 0,
            "byteLength" : 2160,
            "byteOffset" : 138400
        },
        {
            "buffer" : 0,
            "byteLength" : 4320,
            "byteOffset" : 140560
        },
        {
            "buffer" : 0,
            "byteLength" : 540,
            "byteOffset" : 144880
        },
        {
            "buffer" : 0,
            "byteLength" : 3312,
            "byteOffset" : 145420
        },
        {
            "buffer" : 0,
            "byteLength" : 3312,
            "byteOffset" : 148732
        },
        {
            "buffer" : 0,
            "byteLength" : 4416,
            "byteOffset" : 152044
        },
        {
            "buffer" : 0,
            "byteLength" : 2208,
            "byteOffset" : 156460
        },
        {
            "buffer" : 0,
            "byteLength" : 4416,
            "byteOffset" : 158668
        }
    ],
    "buffers" : [
        {
            "byteLength" : 163084,
            "uri" : "data:application/octet-stream;base64,"
        }
    ]
}
