{
    "asset" : {
        "generator" : "Khronos Blender glTF 2.0 I/O",
        "version" : "2.0"
    },
    "scene" : 0,
    "scenes" : [
        {
            "name" : "Scene",
            "nodes" : [
                0,
                1,
                2,
                3,
                4,
                5
            ]
        }
    ],
    "nodes" : [
        {
            "mesh" : 0,
            "name" : "Cube",
            "scale" : [
                0.39094865322113037,
                0.39094865322113037,
                0.39094865322113037
            ]
        },
        {
            "name" : "Light",
            "rotation" : [
                0.16907575726509094,
                0.7558803558349609,
                -0.27217137813568115,
                0.570947527885437
            ],
            "translation" : [
                4.076245307922363,
                5.903861999511719,
                -1.0054539442062378
            ]
        },
        {
            "name" : "Camera",
            "rotation" : [
                0.483536034822464,
                0.33687159419059753,
                -0.20870360732078552,
                0.7804827094078064
            ],
            "translation" : [
                7.358891487121582,
                4.958309173583984,
                6.925790786743164
            ]
        },
        {
            "mesh" : 1,
            "name" : "Icosphere",
            "scale" : [
                -0.48657023906707764,
                -0.48657023906707764,
                -0.48657023906707764
            ],
            "translation" : [
                -0.27440476417541504,
                2.115426778793335,
                -0.5998574495315552
            ]
        },
        {
            "mesh" : 2,
            "name" : "Icosphere.001",
            "rotation" : [
                0.518357515335083,
                0.40342336893081665,
                -0.08835772424936295,
                0.7488310933113098
            ],
            "scale" : [
                0.4263872504234314,
                0.4263872802257538,
                0.4263872504234314
            ],
            "translation" : [
                -0.4538055956363678,
                2.058692693710327,
                0.6093647480010986
            ]
        },
        {
            "mesh" : 3,
            "name" : "Icosphere.002",
            "scale" : [
                0.5035301446914673,
                0.5035301446914673,
                0.5035301446914673
            ],
            "translation" : [
                0.7940287590026855,
                1.9180176258087158,
                -0.04542136192321777
            ]
        }
    ],
    "materials" : [
        {
            "name" : "Material",
            "pbrMetallicRoughness" : {
                "baseColorFactor" : [
                    0.22340898215770721,
                    0.06878640502691269,
                    0.01974700763821602,
                    1
                ],
                "metallicFactor" : 0,
                "roughnessFactor" : 0.5
            }
        },
        {
            "name" : "Material.001",
            "pbrMetallicRoughness" : {
                "baseColorFactor" : [
                    0.1057453602552414,
                    0.3464599847793579,
                    0.08972702920436859,
                    1
                ],
                "metallicFactor" : 0,
                "roughnessFactor" : 0.5
            }
        }
    ],
    "meshes" : [
        {
            "name" : "Cube",
            "primitives" : [
                {
                    "attributes" : {
                        "POSITION" : 0,
                        "NORMAL" : 1
                    },
                    "indices" : 2,
                    "material" : 0
                }
            ]
        },
        {
            "name" : "Icosphere.001",
            "primitives" : [
                {
                    "attributes" : {
                        "POSITION" : 3,
                        "NORMAL" : 4,
                        "TANGENT" : 5,
                        "TEXCOORD_0" : 6
                    },
                    "indices" : 7,
                    "material" : 1
                }
            ]
        },
        {
            "name" : "Icosphere.002",
            "primitives" : [
                {
                    "attributes" : {
                        "POSITION" : 8,
                        "NORMAL" : 9,
                        "TANGENT" : 10,
                        "TEXCOORD_0" : 11
                    },
                    "indices" : 7,
                    "material" : 1
                }
            ]
        },
        {
            "name" : "Icosphere.003",
            "primitives" : [
                {
                    "attributes" : {
                        "POSITION" : 12,
                        "NORMAL" : 13,
                        "TANGENT" : 14,
                        "TEXCOORD_0" : 15
                    },
                    "indices" : 7,
                    "material" : 1
                }
            ]
        }
    ],
    "accessors" : [
        {
            "bufferView" : 0,
            "componentType" : 5126,
            "count" : 994,
            "max" : [
                1.5035392045974731,
                5.218961715698242,
                1.2793266773223877
            ],
            "min" : [
                -1.119787573814392,
                -0.006181843113154173,
                -1.6277244091033936
            ],
            "type" : "VEC3"
        },
        {
            "bufferView" : 1,
            "componentType" : 5126,
            "count" : 994,
            "type" : "VEC3"
        },
        {
            "bufferView" : 2,
            "componentType" : 5123,
            "count" : 1476,
            "type" : "SCALAR"
        },
        {
            "bufferView" : 3,
            "componentType" : 5126,
            "count" : 348,
            "max" : [
                1.0706218481063843,
                0.9868149757385254,
                0.9367092847824097
            ],
            "min" : [
                -0.967339038848877,
                -0.7553108930587769,
                -0.7913475036621094
            ],
            "type" : "VEC3"
        },
        {
            "bufferView" : 4,
            "componentType" : 5126,
            "count" : 348,
            "type" : "VEC3"
        },
        {
            "bufferView" : 5,
            "componentType" : 5126,
            "count" : 348,
            "type" : "VEC4"
        },
        {
            "bufferView" : 6,
            "componentType" : 5126,
            "count" : 348,
            "type" : "VEC2"
        },
        {
            "bufferView" : 7,
            "componentType" : 5123,
            "count" : 348,
            "type" : "SCALAR"
        },
        {
            "bufferView" : 8,
            "componentType" : 5126,
            "count" : 348,
            "max" : [
                1.0706218481063843,
                0.9868149757385254,
                0.9367092847824097
            ],
            "min" : [
                -0.967339038848877,
                -0.7553108930587769,
                -0.7913475036621094
            ],
            "type" : "VEC3"
        },
        {
            "bufferView" : 9,
            "componentType" : 5126,
            "count" : 348,
            "type" : "VEC3"
        },
        {
            "bufferView" : 10,
            "componentType" : 5126,
            "count" : 348,
            "type" : "VEC4"
        },
        {
            "bufferView" : 11,
            "componentType" : 5126,
            "count" : 348,
            "type" : "VEC2"
        },
        {
            "bufferView" : 12,
            "componentType" : 5126,
            "count" : 348,
            "max" : [
                1.0706218481063843,
                0.9868149757385254,
                0.9367092847824097
            ],
            "min" : [
                -0.967339038848877,
                -0.7553108930587769,
                -0.7913475036621094
            ],
            "type" : "VEC3"
        },
        {
            "bufferView" : 13,
            "componentType" : 5126,
            "count" : 348,
            "type" : "VEC3"
        },
        {
            "bufferView" : 14,
            "componentType" : 5126,
            "count" : 348,
            "type" : "VEC4"
        },
        {
            "bufferView" : 15,
            "componentType" : 5126,
            "count" : 348,
            "type" : "VEC2"
        }
    ],
    "bufferViews" : [
        {
            "buffer" : 0,
            "byteLength" : 11928,
            "byteOffset" : 0
        },
        {
            "buffer" : 0,
            "byteLength" : 11928,
            "byteOffset" : 11928
        },
        {
            "buffer" : 0,
            "byteLength" : 2952,
            "byteOffset" : 23856
        },
        {
            "buffer" : 0,
            "byteLength" : 4176,
            "byteOffset" : 26808
        },
        {
            "buffer" : 0,
            "byteLength" : 4176,
            "byteOffset" : 30984
        },
        {
            "buffer" : 0,
            "byteLength" : 5568,
            "byteOffset" : 35160
        },
        {
            "buffer" : 0,
            "byteLength" : 2784,
            "byteOffset" : 40728
        },
        {
            "buffer" : 0,
            "byteLength" : 696,
            "byteOffset" : 43512
        },
        {
            "buffer" : 0,
            "byteLength" : 4176,
            "byteOffset" : 44208
        },
        {
            "buffer" : 0,
            "byteLength" : 4176,
            "byteOffset" : 48384
        },
        {
            "buffer" : 0,
            "byteLength" : 5568,
            "byteOffset" : 52560
        },
        {
            "buffer" : 0,
            "byteLength" : 2784,
            "byteOffset" : 58128
        },
        {
            "buffer" : 0,
            "byteLength" : 4176,
            "byteOffset" : 60912
        },
        {
            "buffer" : 0,
            "byteLength" : 4176,
            "byteOffset" : 65088
        },
        {
            "buffer" : 0,
            "byteLength" : 5568,
            "byteOffset" : 69264
        },
        {
            "buffer" : 0,
            "byteLength" : 2784,
            "byteOffset" : 74832
        }
    ],
    "buffers" : [
        {
            "byteLength" : 77616,
            "uri" : "data:application/octet-stream;base64,"
        }
    ]
}
